<svg width="7" height="14" viewBox="0 0 7 14" fill="none" xmlns="http://www.w3.org/2000/svg">
<path fill-rule="evenodd" clip-rule="evenodd" d="M0.33741 -0.834099C0.316085 -0.836507 0.294776 -0.839201 0.273456 -0.841897C0.207778 -0.850202 0.141986 -0.858521 0.0752344 -0.858521C0.061389 -0.858521 0.0477057 -0.856665 0.0340538 -0.854814C0.0222416 -0.853212 0.0104523 -0.851613 -0.00139713 -0.851222C-0.0227828 -0.851613 -0.0440474 -0.853216 -0.0653315 -0.85482C-0.0898638 -0.85667 -0.114422 -0.858521 -0.139222 -0.858521C-4.47298 -0.858521 -7.99887 2.66765 -7.99887 7.00113C-7.99887 11.3352 -4.47298 14.8608 -0.139222 14.8608C-0.1143 14.8608 -0.0896225 14.859 -0.0650139 14.8572C-0.0438881 14.8557 -0.0228128 14.8541 -0.00167799 14.8538C0.0103016 14.8542 0.0221605 14.8557 0.0340099 14.8572C0.0477057 14.859 0.061389 14.8608 0.0752344 14.8608C0.145486 14.8608 0.214674 14.8519 0.283785 14.8431L0.31513 14.8391L0.33741 14.8364C4.44913 14.5882 7.72043 11.1743 7.72043 7.00113C7.72043 2.82794 4.44913 -0.585678 0.33741 -0.834099ZM-2.49206 0.543865C-3.28813 1.46288 -3.93487 2.78246 -4.28996 4.34092C-5.39424 4.22106 -6.06063 4.08155 -6.32926 4.01699C-5.54887 2.40556 -4.17305 1.16028 -2.49206 0.543865ZM-6.70119 4.93236C-6.9075 5.58527 -7.01978 6.28029 -7.01978 7.00113C-7.01862 7.84796 -6.86004 8.6872 -6.55213 9.47608C-6.23747 9.40001 -5.53627 9.25432 -4.39803 9.13081C-4.51873 8.4546 -4.58975 7.74302 -4.58975 7.00113C-4.58914 6.43445 -4.54909 5.86849 -4.46989 5.30737C-5.79677 5.16001 -6.51368 4.98288 -6.70119 4.93236ZM-6.12434 10.3833C-5.76841 10.3075 -5.13066 10.1927 -4.18806 10.0942C-3.81726 11.4663 -3.21403 12.6258 -2.4915 13.459C-4.02873 12.8965 -5.31634 11.8066 -6.12491 10.3833H-6.12434ZM-3.29234 10.0103C-2.78399 11.9791 -1.54385 13.4396 -0.701748 13.7921V9.90723C-1.54385 9.91734 -2.5614 9.95608 -3.29234 10.0103ZM-0.701748 8.92871C-1.54385 8.93937 -2.68996 8.9826 -3.47143 9.04323C-3.57894 8.39481 -3.60954 7.70878 -3.60954 7.00113C-3.60954 6.45095 -3.59887 5.91537 -3.53234 5.39804C-2.7388 5.46092 -1.54385 5.50611 -0.701748 5.51734V8.92843V8.92871ZM-3.39761 4.42794C-2.64477 4.48548 -1.54385 4.52815 -0.701748 4.53853V4.53825V0.210392C-1.54385 0.588778 -2.92743 2.23987 -3.39761 4.42794ZM6.02555 3.96309C5.87201 4.01025 5.24997 4.18373 4.01966 4.32941C3.74204 2.85292 3.24099 1.59481 2.58751 0.686462C4.08562 1.33573 5.30387 2.50457 6.02555 3.96281V3.96309ZM3.11215 4.42653C2.65095 2.21123 1.26316 0.545269 0.421059 0.195795V4.53881C1.26316 4.52843 2.37137 4.48548 3.11215 4.42653ZM0.421059 5.51734C1.26316 5.50639 2.44351 5.46008 3.22723 5.39495C3.2918 5.91313 3.30808 6.44955 3.30808 7.00113C3.30808 7.70962 3.28281 8.39678 3.17839 9.04604C2.40674 8.98373 1.26316 8.93881 0.421059 8.92871V5.51734ZM0.421059 9.90723V13.8067V13.807C1.26316 13.4808 2.51004 12.0077 3.00969 10.0125C2.28829 9.95692 1.26316 9.91734 0.421059 9.90723ZM2.58751 13.3164C3.17643 12.4978 3.64548 11.3992 3.93488 10.1088C4.90274 10.2202 5.51243 10.3499 5.8198 10.4274C5.07966 11.7118 3.9466 12.7245 2.58751 13.3164ZM4.16787 5.29671C4.31556 6.57569 4.29575 7.86847 4.10892 9.14232L4.1092 9.14204C5.30387 9.28239 5.98344 9.45137 6.25376 9.53025C6.56534 8.74653 6.74218 7.8946 6.74218 7.00113C6.74179 6.11797 6.5702 5.24327 6.23692 4.42541L6.39495 4.87173C6.3506 4.88744 5.68085 5.11509 4.16787 5.29671Z" fill="white"/>
</svg>
